<svg xmlns="http://www.w3.org/2000/svg" version="1.1" viewBox="0 0 1379 410" width="1379.0pt" height="410.0pt">

<path d="M 206.00 31.36 C 223.11 31.31 240.41 34.85 256.63 40.15 C 251.98 40.45 247.61 39.23 243.01 38.90 C 228.93 38.08 214.81 39.08 200.99 41.90 C 187.38 45.62 174.15 49.89 161.74 56.73 C 151.67 61.93 142.22 68.24 133.61 75.61 C 126.03 82.79 118.80 90.19 112.72 98.71 C 107.44 105.09 103.46 112.24 99.45 119.46 C 90.44 137.68 83.78 156.69 81.57 177.00 C 81.15 185.15 79.69 192.33 81.48 200.32 C 80.75 223.48 85.10 246.42 96.06 266.94 C 109.51 292.58 132.27 313.02 159.20 323.64 C 173.46 329.04 188.75 331.88 204.01 331.37 C 219.15 330.37 234.46 326.03 246.56 316.59 C 252.48 312.11 257.75 306.70 260.84 299.86 C 262.27 297.08 261.20 293.87 260.67 290.98 C 258.76 282.97 256.49 275.31 255.49 267.02 C 253.19 251.42 254.92 235.29 260.46 220.52 C 267.45 201.32 280.93 185.30 296.96 172.93 C 305.84 166.35 315.14 160.34 324.52 154.52 C 334.10 148.83 343.34 142.62 352.87 136.83 C 359.70 132.72 365.85 127.90 372.35 123.30 C 378.79 118.83 384.05 113.15 390.10 108.11 C 402.00 140.84 408.85 175.13 409.18 210.00 C 408.75 224.45 407.04 238.54 403.28 252.52 C 399.00 267.99 393.43 283.44 382.71 295.69 C 376.30 303.95 367.93 310.20 358.54 314.70 C 345.23 321.37 330.78 323.90 316.00 324.32 C 308.23 323.86 300.64 323.34 293.10 321.30 C 297.58 316.30 301.58 310.94 305.62 305.59 C 314.70 293.23 323.54 280.55 330.97 267.12 C 336.96 255.73 342.70 244.27 347.10 232.16 C 350.20 223.56 353.14 214.87 355.93 206.16 C 357.95 199.91 359.31 193.50 361.31 187.24 C 362.01 185.07 362.44 182.96 362.65 180.69 C 353.87 201.14 342.03 220.45 330.30 239.31 C 323.77 249.43 317.39 259.66 310.72 269.68 C 298.97 287.07 286.08 303.59 272.88 319.89 C 259.58 334.62 245.48 347.96 228.72 358.74 C 210.04 371.44 187.71 381.71 164.96 383.38 C 146.95 380.53 129.60 373.32 113.93 364.10 C 98.89 354.82 84.99 344.05 73.16 330.86 C 66.13 322.72 59.44 314.37 53.79 305.21 C 42.19 286.21 33.80 265.40 29.66 243.50 C 24.87 219.89 25.32 195.58 30.16 172.01 C 37.13 141.16 51.25 112.10 72.73 88.73 C 88.61 71.47 107.91 57.23 129.22 47.39 C 138.69 42.61 148.66 39.80 158.79 36.82 C 174.17 32.94 190.13 30.93 206.00 31.36 Z" fill="#0ca160" data-index="1"></path>
<path d="M 243.01 38.90 C 247.61 39.23 251.98 40.45 256.63 40.15 C 266.62 43.29 276.42 47.27 285.54 52.47 C 298.00 59.03 310.09 67.15 319.98 77.24 C 296.76 61.58 268.98 52.65 241.00 51.80 C 235.34 51.76 229.66 52.30 224.00 52.55 C 196.68 55.01 170.65 66.27 149.21 83.23 C 133.01 95.60 121.07 111.06 110.02 128.01 C 107.67 131.83 104.93 135.14 103.48 139.46 C 102.43 141.37 101.24 143.20 100.04 145.02 C 94.33 154.02 90.16 163.79 87.31 174.04 C 84.32 182.63 83.46 191.51 81.48 200.32 C 79.69 192.33 81.15 185.15 81.57 177.00 C 83.78 156.69 90.44 137.68 99.45 119.46 C 103.46 112.24 107.44 105.09 112.72 98.71 C 118.80 90.19 126.03 82.79 133.61 75.61 C 142.22 68.24 151.67 61.93 161.74 56.73 C 174.15 49.89 187.38 45.62 200.99 41.90 C 214.81 39.08 228.93 38.08 243.01 38.90 Z" fill="#80e0a4" data-index="2"></path>
<path d="M 224.00 52.55 C 229.66 52.30 235.34 51.76 241.00 51.80 C 268.98 52.65 296.76 61.58 319.98 77.24 C 324.16 80.66 328.15 84.25 331.65 88.39 C 339.11 96.22 345.63 104.89 351.34 114.08 C 336.12 124.12 320.28 133.25 304.97 143.14 C 288.94 117.41 263.18 98.14 233.96 90.06 C 215.80 85.24 196.18 84.60 177.88 89.02 C 155.65 94.69 134.53 106.03 118.05 122.05 C 113.04 127.61 107.47 133.20 103.48 139.46 C 104.93 135.14 107.67 131.83 110.02 128.01 C 121.07 111.06 133.01 95.60 149.21 83.23 C 170.65 66.27 196.68 55.01 224.00 52.55 Z" fill="#05402a" data-index="3"></path>
<path d="M 475.34 121.67 C 502.23 121.86 529.12 121.62 556.00 121.78 C 574.26 122.41 593.69 127.71 606.36 141.63 C 616.92 153.01 621.79 168.65 621.56 184.00 C 621.39 194.48 619.70 205.23 614.45 214.45 C 608.75 225.84 598.62 234.26 586.95 239.07 C 589.74 244.17 593.18 248.79 596.29 253.68 C 605.96 268.69 615.84 283.58 625.25 298.75 C 610.58 298.77 595.90 298.87 581.23 298.79 C 569.65 281.55 558.95 263.76 547.71 246.31 C 536.55 246.28 525.39 246.27 514.24 246.33 C 514.35 263.81 514.31 281.29 514.26 298.77 C 501.25 298.74 488.22 298.83 475.21 298.77 C 475.46 239.74 475.18 180.69 475.34 121.67 Z" fill="#05402a" data-index="4" style="opacity: 1; visibility: visible;"></path>
<path d="M 791.73 121.88 C 803.14 121.56 814.58 121.86 826.00 121.70 C 827.48 121.78 829.30 121.52 830.68 122.03 C 831.30 135.05 830.68 147.98 830.83 161.00 C 830.90 195.77 830.67 230.50 831.18 265.28 C 858.71 265.18 886.24 265.37 913.77 265.28 C 913.74 276.46 913.70 287.64 913.76 298.83 C 873.07 298.74 832.38 298.83 791.70 298.78 C 791.52 267.86 791.69 236.92 791.61 206.00 C 791.73 178.24 791.41 150.46 791.71 122.70 L 791.73 121.88 Z" fill="#0ca160" data-index="5"></path>
<path d="M 514.49 154.58 C 524.62 154.07 534.84 154.55 545.00 154.44 C 553.29 154.26 562.92 155.34 569.92 160.16 C 576.61 164.87 580.84 173.02 581.14 181.17 C 581.40 187.92 580.41 194.82 576.56 200.53 C 571.53 208.52 561.18 212.76 552.00 212.75 C 539.44 212.84 526.88 212.79 514.33 212.82 C 514.34 193.42 514.06 173.97 514.49 154.58 Z" fill="#fdfdfd" data-index="6" style="visibility: visible; opacity: 1;"></path>
<path d="M 712.97 166.10 C 726.43 167.36 739.77 173.05 749.69 182.29 C 758.79 190.45 764.62 202.46 767.46 214.19 C 769.92 224.00 769.46 233.41 769.09 243.40 C 737.01 243.45 704.92 243.25 672.84 243.47 C 674.35 249.05 676.35 254.29 680.39 258.58 C 686.16 265.26 694.34 268.81 702.99 269.83 C 710.09 270.92 717.51 269.79 724.21 267.32 C 730.33 265.01 735.10 261.10 740.02 256.93 C 747.26 264.45 754.22 272.20 761.54 279.65 C 757.39 283.89 753.09 287.90 747.95 290.94 C 732.77 300.30 713.47 302.88 695.99 300.78 C 684.92 299.69 674.46 295.76 664.98 290.03 C 650.24 280.79 640.07 265.14 637.18 248.02 C 634.56 234.43 636.04 220.02 641.01 207.13 C 646.44 194.01 655.62 182.19 668.03 175.03 C 681.38 167.19 697.65 164.13 712.97 166.10 Z" fill="#05402a" data-index="7" style="opacity: 1;"></path>
<path d="M 978.50 166.73 C 1002.42 162.60 1028.58 169.64 1045.45 187.55 C 1056.93 199.91 1063.16 217.18 1062.75 234.00 C 1063.31 254.13 1054.05 274.64 1037.95 286.91 C 1023.34 298.02 1005.16 302.46 986.99 301.39 C 976.11 300.57 965.65 298.33 956.03 293.03 C 943.93 286.72 933.95 276.33 928.01 264.07 C 921.73 250.01 919.95 234.07 923.28 219.01 C 925.64 206.85 932.11 195.49 940.54 186.53 C 950.75 175.83 964.11 169.57 978.50 166.73 Z" fill="#0ca160" data-index="8" style="opacity: 1;"></path>
<path d="M 1140.11 165.83 C 1162.77 164.05 1186.18 172.45 1201.03 189.98 C 1219.21 210.94 1221.54 243.36 1208.51 267.52 C 1199.80 283.09 1184.65 294.12 1167.51 298.71 C 1154.97 302.30 1141.61 302.32 1128.87 299.82 C 1119.94 298.20 1111.33 294.09 1103.69 289.29 C 1094.12 282.68 1086.05 273.31 1081.58 262.53 C 1075.06 248.29 1074.27 231.35 1077.79 216.23 C 1081.35 203.21 1088.71 190.83 1099.13 182.14 C 1110.41 172.50 1125.42 167.05 1140.11 165.83 Z" fill="#0ca160" data-index="9"></path>
<path d="M 1355.06 183.96 C 1365.14 194.86 1371.40 209.03 1372.92 223.79 C 1374.32 237.82 1373.59 251.73 1367.75 264.75 C 1362.29 277.97 1352.11 289.04 1339.15 295.17 C 1325.88 301.73 1310.37 303.13 1296.00 299.86 C 1286.60 297.58 1278.85 292.18 1272.09 285.44 C 1272.37 308.71 1272.11 332.00 1272.21 355.27 C 1259.88 355.19 1247.55 355.35 1235.22 355.23 C 1235.24 293.01 1235.34 230.74 1235.20 168.53 C 1247.29 168.25 1259.39 168.59 1271.48 168.46 C 1271.49 173.41 1271.62 178.36 1271.68 183.32 C 1276.47 177.69 1282.28 173.01 1289.09 170.09 C 1311.04 160.40 1338.65 166.70 1355.06 183.96 Z" fill="#0ca160" data-index="10" style="opacity: 1;"></path>
<path d="M 723.52 201.48 C 729.31 206.26 732.42 212.98 733.65 220.29 C 713.42 220.30 693.18 220.33 672.95 220.20 C 674.14 214.07 676.41 208.37 680.84 203.84 C 691.40 192.08 711.77 190.78 723.52 201.48 Z" fill="#fdfdfd" data-index="11" style="visibility: visible;"></path>
<path d="M 988.15 198.05 C 998.43 196.62 1008.83 200.59 1015.99 208.01 C 1021.08 213.09 1023.73 220.04 1025.03 227.00 C 1026.23 235.15 1025.56 243.42 1021.84 250.86 C 1018.79 257.49 1013.33 262.59 1006.85 265.83 C 992.80 272.66 974.42 268.55 965.29 255.69 C 956.87 243.62 956.40 226.46 963.80 213.80 C 969.14 205.28 978.05 199.15 988.15 198.05 Z" fill="#fdfdfd" data-index="12" style="visibility: visible; opacity: 1;"></path>
<path d="M 1143.15 198.02 C 1152.63 197.15 1162.86 200.57 1169.49 207.52 C 1176.40 214.29 1179.90 224.44 1179.70 234.00 C 1179.84 241.70 1177.57 249.74 1172.87 255.90 C 1168.11 262.26 1160.85 266.95 1153.04 268.44 C 1145.28 269.41 1137.60 269.27 1130.59 265.39 C 1122.82 261.66 1117.34 254.61 1114.82 246.45 C 1112.77 240.56 1113.05 234.15 1113.39 227.99 C 1114.17 221.03 1116.96 213.95 1121.78 208.78 C 1127.21 202.65 1134.98 198.69 1143.15 198.02 Z" fill="#fdfdfd" data-index="13" style="visibility: visible;"></path>
<path d="M 1294.64 198.98 C 1307.97 194.77 1322.61 200.08 1330.32 211.64 C 1339.43 225.63 1338.70 246.69 1327.16 259.15 C 1320.51 266.57 1310.43 270.17 1300.58 268.95 C 1293.61 268.26 1286.90 264.89 1281.69 260.30 C 1274.15 253.38 1270.96 241.99 1271.39 232.00 C 1271.25 226.08 1272.92 220.55 1275.35 215.21 C 1279.02 207.45 1286.41 201.35 1294.64 198.98 Z" fill="#fdfdfd" data-index="14" style="visibility: visible; opacity: 1;"></path>
<path d="M 278.02 339.17 C 291.62 342.24 305.16 343.70 319.10 343.89 C 313.06 349.79 306.34 354.70 299.23 359.23 C 273.86 376.01 244.30 386.00 213.99 388.31 C 210.76 388.45 207.55 388.58 204.37 389.13 C 204.91 388.68 205.44 388.14 206.06 387.80 C 221.63 383.90 235.94 375.20 248.76 365.77 C 259.26 357.73 269.04 348.88 278.02 339.17 Z" fill="#05402a" data-index="15"></path>
</svg>