<svg xmlns="http://www.w3.org/2000/svg" version="1.1" viewBox="0 0 426 401" width="426.0pt" height="401.0pt">

<path d="M 218.00 30.76 C 226.26 32.51 234.49 34.39 242.50 37.08 C 238.14 37.70 234.35 36.29 230.02 36.02 C 216.11 35.01 202.16 36.01 188.46 38.60 C 166.24 44.01 145.23 53.01 126.91 66.82 C 118.45 72.81 111.25 80.71 104.38 88.41 C 99.25 95.04 93.79 101.54 89.82 108.83 C 83.99 118.19 79.76 128.53 75.83 138.86 C 71.14 152.33 67.64 166.72 67.08 181.00 C 65.93 190.15 67.25 199.00 67.51 208.13 C 67.59 212.92 68.33 217.71 68.80 222.49 C 69.87 232.07 72.64 241.12 75.83 250.18 C 89.69 287.15 122.34 316.73 161.03 325.43 C 181.35 330.27 202.47 329.60 221.51 320.46 C 230.67 315.84 239.78 309.01 245.14 300.12 C 246.32 298.02 247.90 295.48 247.54 293.00 C 246.93 287.98 245.35 282.93 244.17 278.01 C 241.77 268.18 240.22 258.15 240.56 248.00 C 240.95 229.38 247.18 211.10 257.81 195.84 C 264.85 185.98 273.35 177.29 282.96 169.92 C 294.82 161.13 307.26 153.48 319.85 145.81 C 330.49 138.74 341.77 132.59 351.95 124.91 C 356.66 121.43 361.81 118.11 366.07 114.09 C 369.35 111.04 372.66 107.99 376.15 105.17 C 386.16 132.81 392.62 161.65 394.60 191.00 C 394.67 197.75 395.67 204.25 394.94 211.00 C 394.33 231.53 389.89 252.04 381.98 271.00 C 377.23 282.57 369.63 292.97 360.45 301.42 C 343.79 315.42 322.45 321.12 301.00 321.30 C 293.54 320.73 286.38 320.33 279.14 318.30 C 284.33 312.36 289.03 306.06 293.73 299.74 C 301.89 288.40 309.94 276.80 316.72 264.57 C 323.45 251.92 329.72 239.08 334.43 225.52 C 338.34 213.99 342.47 202.63 345.40 190.79 C 346.37 186.49 348.38 182.24 348.63 177.84 C 335.78 207.15 317.08 234.96 299.90 261.91 C 287.16 281.27 273.03 299.48 258.42 317.44 C 251.07 325.31 243.51 333.40 235.25 340.26 C 223.12 350.87 209.43 359.79 195.21 367.34 C 182.42 373.58 169.21 378.31 155.02 380.01 C 150.34 381.09 146.47 379.58 141.96 378.59 C 124.61 374.33 108.04 366.74 93.23 356.77 C 81.11 348.88 69.92 339.55 60.09 328.92 C 51.89 319.56 44.20 309.84 37.88 299.08 C 31.37 287.66 25.50 275.59 21.56 263.03 C 9.56 227.37 9.08 187.60 20.87 151.83 C 28.65 127.31 41.69 104.09 59.20 85.20 C 75.00 68.20 94.11 54.12 115.21 44.39 C 124.60 39.63 134.51 36.87 144.55 33.87 C 168.40 27.78 193.73 26.51 218.00 30.76 Z" fill="#0da361" data-index="1" style="opacity: 1;"></path>
<path d="M 230.02 36.02 C 234.35 36.29 238.14 37.70 242.50 37.08 C 252.29 40.21 261.95 44.05 270.91 49.12 C 283.26 55.68 295.59 63.58 305.31 73.72 C 283.23 59.15 257.41 50.47 231.00 48.94 C 223.78 48.43 216.29 49.24 209.00 49.60 C 171.05 53.36 135.44 74.14 111.45 103.47 C 105.28 111.39 99.38 119.51 94.06 128.03 C 92.49 130.65 90.14 133.36 89.58 136.38 C 83.43 145.87 77.92 155.59 74.70 166.52 C 70.28 179.83 67.41 194.07 67.51 208.13 C 67.25 199.00 65.93 190.15 67.08 181.00 C 67.64 166.72 71.14 152.33 75.83 138.86 C 79.76 128.53 83.99 118.19 89.82 108.83 C 93.79 101.54 99.25 95.04 104.38 88.41 C 111.25 80.71 118.45 72.81 126.91 66.82 C 145.23 53.01 166.24 44.01 188.46 38.60 C 202.16 36.01 216.11 35.01 230.02 36.02 Z" fill="#80e0a4" data-index="2"></path>
<path d="M 209.00 49.60 C 216.29 49.24 223.78 48.43 231.00 48.94 C 257.41 50.47 283.23 59.15 305.31 73.72 C 307.88 75.80 310.41 77.92 312.81 80.20 C 322.02 89.65 330.48 99.71 337.29 111.06 C 322.16 121.18 306.26 130.24 290.98 140.14 C 281.61 125.35 269.07 112.19 254.28 102.75 C 228.36 85.30 195.53 78.86 165.00 85.76 C 142.34 91.30 120.83 102.79 104.05 119.05 C 99.13 124.60 93.50 130.09 89.58 136.38 C 90.14 133.36 92.49 130.65 94.06 128.03 C 99.38 119.51 105.28 111.39 111.45 103.47 C 135.44 74.14 171.05 53.36 209.00 49.60 Z" fill="#06472e" data-index="3"></path>
<path d="M 264.03 336.14 C 277.52 339.26 291.21 340.66 305.04 340.90 C 301.39 344.64 297.19 347.88 293.01 351.01 C 282.00 358.67 270.25 365.78 257.88 371.03 C 246.48 376.19 234.22 379.62 222.02 382.28 C 212.39 384.17 202.58 385.50 192.76 385.61 C 192.10 385.65 191.45 385.79 190.81 386.03 C 190.69 385.91 190.58 385.79 190.47 385.67 C 195.32 383.69 200.43 382.53 205.20 380.32 C 227.54 370.53 247.47 353.84 264.03 336.14 Z" fill="#06472e" data-index="4" style="opacity: 1;"></path>
</svg>